# xmcd
#
# Track frame offsets:
#  150
#  13707
#  26553
#  37143
#  48568
#  64597
#  78505
#  100914
#  125867
#  137466
#  152357
#  165811
#  175959
#  188489
#  199223
#  213289
#
# Disc length: 3030 seconds
#
# Revision: 0
# Processed by: cddbd v1.5.2PL0 Copyright (c) Steve Scherf et al.
# Submitted via: Collectorz.com_Music_Collector 6.11
#
DISCID=d00bd410
DTITLE=Various Artist - Soul [CD2)
DYEAR=2002
DGENRE=Soul
TTITLE0=Ben E King - Stand By Me
TTITLE1=Percy Sledge - When A Man Loves A Woman
TTITLE2=Eddie Floyd - Bring It On Home To Me
TTITLE3=The Shirelles - Baby It's You
TTITLE4=Harold Melvin and The Blue Notes - If You Don't Know Me By Now
TTITLE5=Jimmy Ruffin - What Becomes Of The Broken Hearted
TTITLE6=Marvin Gaye - I Heard It Through The Grapevine (Live)
TTITLE7=Rose Royce - Love Don't Live Here Any More (Live)
TTITLE8=Clarence Carter - Slip Away
TTITLE9=Esther Phillips - Release Me
TTITLE10=Betty Everett - Jerry Butler - Let It Be Me
TTITLE11=The Drifters - Save The Last Dance For Me
TTITLE12=Mary Wells - My Guy
TTITLE13=Phil Phillips - Sea Of Love
TTITLE14=Dave "Baby" Cortez - Green Onions
TTITLE15=Aaron Neville - Tell It Like It Is
EXTD=
EXTT0=
EXTT1=
EXTT2=
EXTT3=
EXTT4=
EXTT5=
EXTT6=
EXTT7=
EXTT8=
EXTT9=
EXTT10=
EXTT11=
EXTT12=
EXTT13=
EXTT14=
EXTT15=
PLAYORDER=
